<?xml version="1.0" encoding="utf-8"?>
<!-- Generator: Adobe Illustrator 17.1.0, SVG Export Plug-In . SVG Version: 6.00 Build 0)  -->
<!DOCTYPE svg PUBLIC "-//W3C//DTD SVG 1.1//EN" "http://www.w3.org/Graphics/SVG/1.1/DTD/svg11.dtd">
<svg version="1.1" id="Capa_1" xmlns="http://www.w3.org/2000/svg" xmlns:xlink="http://www.w3.org/1999/xlink" x="0px" y="0px"
	 viewBox="0 0 64 64" enable-background="new 0 0 64 64" xml:space="preserve">
<path stroke="#000000" stroke-width="0.25" stroke-miterlimit="10" d="M32,1C14.9,1,1,14.9,1,32s13.9,31,31,31s31-13.9,31-31
	S49.1,1,32,1z M32,57C18.2,57,7,45.8,7,32S18.2,7,32,7s25,11.2,25,25S45.8,57,32,57z"/>
<path d="M11.5,29.5h7v5h-7V29.5z M24.1,52.7l-1.7-1l2.7-4.6l1.7,1L24.1,52.7z M15.2,44.6l-1-1.7l4.6-2.6l1,1.7L15.2,44.6z
	 M18.8,23.8l-4.6-2.6l1-1.7l4.6,2.6L18.8,23.8z M25,16.9l-2.7-4.6l1.7-1l2.7,4.6L25,16.9z M45.8,29.4c-0.2,0.6-0.3,1.6-0.3,2.9
	c0,1.2,0.1,2.2,0.3,2.8c0.2,0.7,0.6,1,1.2,1s1-0.3,1.2-1c0.2-0.7,0.3-1.6,0.3-2.8c0-1.3-0.1-2.3-0.3-2.9c-0.2-0.6-0.6-0.9-1.2-0.9
	C46.5,28.4,46,28.8,45.8,29.4z"/>
<path d="M31.6,9.6V32v22.4C44,54.4,54,44.4,54,32S44,9.6,31.6,9.6z M41.3,36.8c-0.6,0.7-1.6,1-2.8,1c-1.5,0-2.6-0.5-3.2-1.5
	c-0.2-0.3-0.3-0.7-0.4-1.1c-0.1-0.5,0.3-1,0.9-1h0.1c0.6,0,1,0.2,1,0.5c0,0.2,0.1,0.4,0.2,0.5c0.3,0.5,0.7,0.8,1.4,0.8
	c0.4,0,0.8-0.1,1.1-0.4c0.3-0.3,0.5-0.7,0.5-1.2c0-0.7-0.3-1.2-0.9-1.4c-0.2-0.1-0.4-0.1-0.8-0.2c-0.4,0-0.8-0.4-0.8-0.8
	s0.3-0.8,0.7-0.8c0.3,0,0.5-0.1,0.7-0.2c0.5-0.2,0.7-0.6,0.7-1.3c0-0.4-0.1-0.7-0.4-1s-0.6-0.4-1-0.4c-0.5,0-0.9,0.2-1.1,0.5
	c-0.1,0.2-0.2,0.4-0.3,0.6c-0.1,0.4-0.5,0.7-1.1,0.7s-1-0.4-0.9-0.8c0-0.3,0.1-0.5,0.2-0.8c0.2-0.4,0.4-0.8,0.8-1.2
	c0.3-0.3,0.6-0.4,1-0.6c0.4-0.1,0.8-0.2,1.4-0.2c1,0,1.9,0.3,2.5,0.8c0.6,0.5,0.9,1.2,0.9,2.1c0,0.6-0.2,1.2-0.6,1.6
	c-0.1,0.1-0.2,0.2-0.3,0.3c-0.2,0.2-0.2,0.3,0,0.4c0.1,0.1,0.2,0.2,0.4,0.3c0.5,0.5,0.8,1.2,0.8,2.1C42.3,35.3,42,36.1,41.3,36.8z
	 M50,28.1c0.6,1,0.8,2.3,0.8,4.1s-0.3,3.2-0.8,4.1c-0.6,1-1.5,1.4-2.9,1.4s-2.3-0.5-2.9-1.4c-0.6-1-0.8-2.3-0.8-4.1
	c0-1.8,0.3-3.2,0.8-4.1c0.6-1,1.5-1.5,2.9-1.5C48.5,26.7,49.4,27.2,50,28.1z"/>
<path d="M33.5,21.7V43c0,0,17.3,0.3,17.3-9.5c1.4-10.5-13.8-16.2-15.5-14"/>
<text transform="matrix(1 0 0 1 33.5 37.8229)" fill="#FFFFFF" font-family="'ArialRoundedMTBold'" font-size="14.2007">15</text>
</svg>
